<?xml version="1.0" standalone="no"?>
<!DOCTYPE svg PUBLIC "-//W3C//DTD SVG 1.1//EN" "http://www.w3.org/Graphics/SVG/1.1/DTD/svg11.dtd" >
<svg>
<metadata>
Created by FontForge 20090622 at Mon Apr 25 10:48:22 2016
 By ffonts
Copyright (c) 2016 by HENRIavecunK. All rights reserved. To aquire a commercial license please contact henriavecunk@gmail.com.
</metadata>
<defs>
<font id="Bellet-Regular" horiz-adv-x="769" >
  <font-face 
    font-family="Bellet"
    font-weight="400"
    font-stretch="normal"
    units-per-em="1000"
    panose-1="0 0 0 0 0 0 0 0 0 0"
    ascent="705"
    descent="-295"
    x-height="691"
    cap-height="691"
    bbox="-109 -214 983 902"
    underline-thickness="50"
    underline-position="-50"
    unicode-range="U+000D-U+20AC"
  />
<missing-glyph horiz-adv-x="392" 
 />
    <glyph glyph-name=".notdef" horiz-adv-x="392" 
 />
    <glyph glyph-name="minus" horiz-adv-x="505" 
d="M0 253h373v-60h-373v60z" />
    <glyph glyph-name="minus" horiz-adv-x="505" 
d="M0 253h373v-60h-373v60z" />
    <glyph glyph-name="nonmarkingreturn" unicode="&#xd;" horiz-adv-x="0" 
 />
    <glyph glyph-name="space" unicode=" " horiz-adv-x="392" 
 />
    <glyph glyph-name="exclam" unicode="!" horiz-adv-x="251" 
d="M64 121q26 0 44.5 -18.5t18.5 -44.5t-18.5 -45t-44.5 -19q-27 0 -45.5 18.5t-18.5 44.5t18.5 45t45.5 19zM11 662q-3 21 -3 29h111q0 -7 -0.5 -13.5t-1.5 -16.5l-41 -482h-27z" />
    <glyph glyph-name="ampersand" unicode="&#x26;" horiz-adv-x="720" 
d="M246 45q24 0 44 6t37 15.5t32 22l29 24.5q-20 20 -47.5 51l-56 64.5l-54.5 65t-41 52.5q-12 -7 -29 -18.5t-32.5 -29t-26 -42t-10.5 -56.5q0 -37 14 -66t36.5 -48.5t50 -30t54.5 -10.5zM265 646q-38 0 -60.5 -24.5t-22.5 -64.5q0 -35 17.5 -65.5t50.5 -73.5
q49 30 70.5 70.5t21.5 75.5q0 32 -19.5 57t-57.5 25zM599 334q-31 -62 -66 -111t-55 -71q7 -11 25 -30q14 -17 40 -46l67 -76h-122l-36 42.5l-22 25.5q-10 11 -14 16q-14 -14 -33 -30.5t-46 -31t-61.5 -24.5t-77.5 -10q-48 0 -84.5 13.5t-62 37t-38.5 56t-13 70.5
q0 33 9.5 60.5t29.5 52t52.5 47t79.5 45.5q-42 55 -53 91.5t-11 60.5q0 25 8 52.5t26.5 51t48.5 39t75 15.5q36 0 62 -9.5t42.5 -25.5t24 -37t7.5 -44q0 -29 -10 -52t-27 -42.5t-41.5 -38l-52.5 -39.5l45 -55.5l48 -58l46.5 -54l39.5 -43.5q8 7 21.5 24.5t29.5 41.5l33 52
t31 57l35 -22v0z" />
    <glyph glyph-name="parenleft" unicode="(" horiz-adv-x="304" 
d="M75 572q34 61 61.5 90.5t41.5 41.5l12 -13q-24 -26 -45 -66t-36.5 -92t-24.5 -114.5t-9 -134.5q0 -65 8 -125.5t22 -112.5t34.5 -94.5t45.5 -71.5l-10 -11l-28.5 29.5t-35 42t-37.5 58t-36 76.5q-13 32 -25.5 84.5t-12.5 129.5q0 39 4 74.5t13 69.5t23.5 68t34.5 71z" />
    <glyph glyph-name="parenright" unicode=")" horiz-adv-x="327" 
d="M127.005 1.03516q-33.998 -60.9961 -61.4961 -90.4951q-27.499 -29.498 -41.498 -41.4971l-11.999 12.999q23.998 25.999 44.9971 65.9961q20.999 39.998 36.498 91.9941q15.499 51.9971 24.498 114.493q9 62.4961 9 134.492q0 64.9961 -8 125.492
q-7.99902 60.4961 -21.998 112.493q-14 51.9971 -34.498 94.4941q-20.499 42.4971 -45.4971 71.4951l9.99902 11l28.498 -29.498t34.998 -41.998q18.499 -24.498 37.498 -57.9961q18.998 -33.498 35.9971 -76.4951q13 -31.998 25.499 -84.4951t12.499 -129.492
q0 -38.998 -4 -74.4951q-4 -35.498 -12.999 -69.4961t-23.498 -67.9961q-14.5 -33.998 -34.498 -70.9951z" />
    <glyph glyph-name="comma" unicode="," horiz-adv-x="289" 
d="M118 129q24 0 33 -15t9 -29q0 -5 -3 -17.5t-13 -29.5l-110 -184h-34l59 206q12 43 26.5 56t32.5 13z" />
    <glyph glyph-name="hyphen" unicode="-" horiz-adv-x="362" 
d="M0 253h230v-60h-230v60z" />
    <glyph glyph-name="period" unicode="." horiz-adv-x="256" 
d="M127 58q0 -26 -18.5 -45t-44.5 -19q-27 0 -45.5 18.5t-18.5 44.5t18.5 45t45.5 19q26 0 44.5 -18.5t18.5 -44.5z" />
    <glyph glyph-name="zero" unicode="0" horiz-adv-x="613" 
d="M306 -12q-53 0 -89.5 18t-61.5 47t-39 66t-21 75.5t-9 75.5t-2 66q0 30 2 69t9.5 79.5t21.5 79.5t39 69.5t61.5 49t88.5 18.5q53 0 90 -18.5t61.5 -48.5t38.5 -68t21 -76t9 -73.5t2 -60.5q0 -17 -1 -51t-7.5 -75t-20 -84t-38 -78t-62.5 -57.5t-93 -22.5zM306 662
q-28 0 -48 -13.5t-33.5 -37t-21 -54.5t-11.5 -65.5t-5 -71t-1 -69.5q0 -49 2 -106t13 -105.5t35 -80.5t68 -32q64 0 93.5 81t29.5 256q0 65 -4.5 119.5t-17.5 94.5t-36.5 62t-62.5 22z" />
    <glyph glyph-name="one" unicode="1" horiz-adv-x="613" 
d="M383 691v-691h-111v581l-42 -42v66l87 86h66z" />
    <glyph glyph-name="two" unicode="2" horiz-adv-x="613" 
d="M530 42v-42h-447q57 52 109.5 116.5l101.5 124.5q15 18 33 42.5t33.5 55.5t26.5 69.5t11 85.5q0 17 -3.5 44.5t-15.5 53.5t-36 45t-65 19q-13 0 -32 -6t-39.5 -18t-40 -29.5t-34.5 -39.5l-29 23q7 14 21 33.5t37.5 37.5t57.5 31t81 13q48 0 86 -14.5t63.5 -39.5t39 -59
t13.5 -74q0 -36 -9.5 -69.5t-24.5 -63t-34 -55t-38 -45.5l-195 -208l-31 -31h360z" />
    <glyph glyph-name="three" unicode="3" horiz-adv-x="613" 
d="M335 384q20 0 50.5 -10.5t59.5 -32.5t50 -57t21 -84q0 -45 -18.5 -83t-52 -66t-82 -44t-108.5 -16q-62 0 -99 14.5t-59 26.5q8 19 11 41q20 -12 42.5 -20t43.5 -13t38.5 -7t27.5 -2q45 0 74.5 16t47 40t24 52t6.5 53q0 39 -12 70t-33 52.5t-48 33t-57 11.5h-43v37
q10 0 18.5 0.5t14.5 0.5h12q34 1 57 14t37.5 32.5t21 44t6.5 47.5q0 61 -32 94t-81 33q-15 0 -34.5 -6t-39 -15t-36 -20.5t-26.5 -22.5q-4 10 -8.5 18t-12.5 19q10 9 25 21t36 22t48 17t63 7q30 0 64 -7t63 -24.5t48.5 -47.5t19.5 -75q0 -59 -37 -101.5t-94 -59.5
q-12 -4 -14.5 -2.5t-2.5 -0.5q-2 0 -1 -1.5t1 1.5z" />
    <glyph glyph-name="four" unicode="4" horiz-adv-x="613" 
d="M385 226v371l-211 -371h211zM528 184h-33v-184h-110v184h-300l295 507h115v-465h33v-42z" />
    <glyph glyph-name="five" unicode="5" horiz-adv-x="613" 
d="M307 402q43 0 82 -10.5t68 -32.5t46.5 -57.5t17.5 -84.5q0 -52 -20 -94.5t-56 -72.5t-85.5 -46.5t-107.5 -16.5q-28 0 -71.5 7.5t-88.5 37.5q4 14 6 24t4 19q24 -20 61 -32.5t96 -14.5q33 -1 63 10.5t52 34t35 55t13 74.5q0 43 -15 72.5t-37.5 47.5t-49 26t-50.5 8
q-22 0 -47 -4.5t-47.5 -10.5t-39 -12t-20.5 -9v371h361v-42h-250v-255q14 4 32.5 6t47.5 2z" />
    <glyph glyph-name="six" unicode="6" horiz-adv-x="613" 
d="M307 31q23 0 44 11t36.5 33.5t24.5 56t9 77.5q0 32 -6 61.5t-19 52t-34.5 36t-51.5 13.5q-28 0 -47.5 -10.5t-32 -27t-19.5 -36t-10 -38.5t-3.5 -34t-0.5 -22q0 -11 0.5 -27.5t3.5 -34.5t9 -36t17 -33q12 -18 33 -30t47 -12zM339 419q43 0 76 -15.5t55.5 -43t34.5 -64.5
t12 -80q0 -46 -13 -87t-39 -72t-64.5 -49t-89.5 -18q-73 0 -116 32t-65 78t-28 96.5t-6 87.5q0 106 28.5 195t80.5 149q21 24 44 38t46 22t45 10.5t40 2.5q26 0 42 -2.5t30 -7.5q4 -2 7 -2.5t6 -2.5l-17 -36q-16 7 -35.5 11t-37.5 2q-36 -3 -68.5 -25t-57 -62t-38.5 -97.5
t-14 -132.5q7 11 14.5 20t19.5 18q34 25 64 30t44 5z" />
    <glyph glyph-name="seven" unicode="7" horiz-adv-x="613" 
d="M519 691l-287 -691h-123l270 649h-285v42h425z" />
    <glyph glyph-name="eight" unicode="8" horiz-adv-x="613" 
d="M467 359q8 -6 19 -17.5t21.5 -29.5t18 -43.5t7.5 -59.5q0 -55 -17 -96t-47.5 -68.5t-73 -41.5t-92.5 -14q-54 0 -95.5 15t-70 42t-43 65t-14.5 84q0 59 18 93.5t40 54.5q29 26 59 35.5t47 13.5q-61 14 -94.5 50t-33.5 97q0 27 10 56t33 52.5t59.5 38.5t89.5 15
q92 0 141.5 -42t49.5 -110q0 -41 -15 -70t-36 -48q-22 -20 -44.5 -26.5t-44.5 -11.5q21 -2 50 -7t58 -27zM429 203q0 28 -4.5 57.5t-18 53.5t-37 39.5t-60.5 15.5q-47 0 -72 -22.5t-36.5 -52t-13.5 -57t-2 -37.5q0 -31 5.5 -62t19 -55.5t36.5 -39.5t59 -15q59 0 91.5 47
t32.5 128zM401 542q0 17 -3 38t-13 39t-27.5 30.5t-47.5 12.5q-35 0 -54 -16t-28 -38t-10.5 -43.5t-1.5 -31.5q0 -11 2 -32t11 -42t27 -36.5t50 -15.5q17 0 34 7t30.5 23t22 41.5t8.5 63.5z" />
    <glyph glyph-name="nine" unicode="9" horiz-adv-x="613" 
d="M262.019 659.002q-22.998 0 -43.9971 -10.999q-20.999 -11 -36.498 -33.498q-15.499 -22.499 -24.498 -55.9971q-9 -33.498 -9 -77.4951q0 -31.998 6 -61.4961t18.999 -51.9971q12.999 -22.498 34.498 -35.998q21.498 -13.499 51.4961 -13.499q27.999 0 47.4971 10.5
q19.499 10.499 31.998 26.998q12.5 16.499 19.499 35.998q7 19.498 10 38.4971q2.99902 18.999 3.49902 33.998t0.5 21.999q0 10.999 -0.5 27.498t-3.49902 34.498q-3 17.999 -9 35.998q-5.99902 17.999 -16.999 32.998q-11.999 17.998 -32.998 29.998
q-20.998 11.999 -46.9971 11.999zM230.021 271.025q-42.9971 0 -75.9951 15.499t-55.4971 42.998q-22.498 27.498 -34.4971 64.4951q-12 36.998 -12 79.9961q0 45.9971 13 86.9941q12.999 40.998 38.9971 71.9961t64.4961 48.9961q38.498 17.999 89.4941 17.999
q72.9961 0 115.993 -31.998q42.998 -31.998 64.9961 -77.9951q21.999 -45.9971 27.998 -96.4941q6 -50.4971 6 -87.4941q0 -105.994 -28.498 -194.988t-80.4951 -148.991q-20.999 -23.998 -43.9971 -37.9971q-22.999 -14 -45.998 -21.999q-22.998 -7.99902 -44.9971 -10.499
q-21.998 -2.5 -39.9971 -2.5q-25.999 0 -41.998 2.5t-29.998 7.49902q-4 2 -6.99902 2.5q-3 0.5 -6 2.5l16.999 35.998q15.999 -7 35.498 -11q19.499 -3.99902 37.4971 -2q35.998 3 68.4961 24.999q32.498 21.998 56.9971 61.9961q24.498 39.998 38.4971 97.4941
t13.999 132.492q-6.99902 -11 -14.499 -19.999q-7.49902 -9 -19.499 -17.999q-33.9971 -24.998 -63.9961 -29.998q-29.998 -5 -43.9971 -5z" />
    <glyph glyph-name="colon" unicode=":" horiz-adv-x="245" 
d="M127 406q0 -27 -18.5 -45.5t-44.5 -18.5t-45 18.5t-19 44.5t18.5 45t45.5 19q26 0 44.5 -18.5t18.5 -44.5zM127 58q0 -26 -18.5 -45t-44.5 -19q-27 0 -45.5 18.5t-18.5 44.5t18.5 45t45.5 19q26 0 44.5 -18.5t18.5 -44.5z" />
    <glyph glyph-name="semicolon" unicode=";" horiz-adv-x="288" 
d="M118 129q24 0 33 -15t9 -29q0 -5 -3 -17.5t-13 -29.5l-110 -184h-34l59 206q12 43 26.5 56t32.5 13zM110 342q-26 0 -45 19t-19 45t18.5 44.5t45.5 18.5q26 0 44.5 -18.5t18.5 -44.5q0 -27 -18.5 -45.5t-44.5 -18.5z" />
    <glyph glyph-name="question" unicode="?" horiz-adv-x="390" 
d="M116 691q37 0 67 -10.5t51 -29t32 -43.5t11 -55q0 -29 -8 -51.5t-20 -41t-25.5 -33t-25.5 -25.5q-31 -30 -49.5 -50t-28.5 -34.5t-13 -25.5t-3 -23q0 -20 11.5 -37t37.5 -17q5 0 12.5 0.5t15.5 1.5v-29q-7 -2 -14 -3.5t-19 -1.5q-36 0 -59 11.5t-36.5 28.5t-18.5 36.5
t-5 35.5q0 44 25.5 79.5t57.5 66.5q41 41 60 68t19 60q0 35 -22 58t-61 23q-20 0 -46.5 -7.5t-47.5 -20.5l-14 33q16 13 35 20.5t35.5 11t29 4t16.5 0.5zM125 121q27 0 45.5 -18.5t18.5 -44.5t-18.5 -45t-45.5 -19q-26 0 -44.5 18.5t-18.5 44.5t18.5 45t44.5 19z" />
    <glyph glyph-name="A" unicode="A" 
d="M438 226l-140 337l-139 -337h279zM456 184h-314l-76 -184h-66l285 691h83l287 -691h-123z" />
    <glyph glyph-name="B" unicode="B" horiz-adv-x="670" 
d="M249 42q96 0 149 37t53 121t-53 116.5t-149 32.5h-138v-307h138v0zM374 539q0 64 -39 87t-117 23h-107v-249h107q78 0 117 37t39 102zM340 397q44 -5 83 -20.5t68.5 -40.5t47 -59t17.5 -77q0 -48 -21.5 -85.5t-57.5 -63t-83 -38.5t-98 -13h-296v691h251q44 0 83.5 -8
t69.5 -26t47.5 -46.5t17.5 -68.5q0 -59 -37 -94.5t-92 -50.5z" />
    <glyph glyph-name="C" unicode="C" horiz-adv-x="706" 
d="M638 74v-2q-46 -39 -103 -59q-73 -28 -159 -28q-82 0 -151 24.5t-119 70.5t-78 112t-28 149q0 80 26 146t75.5 113.5t121 74t163.5 26.5q73 0 137.5 -20t114.5 -58l-34 -48q-24 22 -54 38t-60.5 26t-59 14.5t-49.5 4.5q-50 0 -98 -17.5t-85.5 -55.5t-60.5 -98t-23 -145
q0 -73 19.5 -131.5t54.5 -99t83.5 -62t106.5 -21.5q29 0 60.5 6t62 17.5t58.5 27t51 34.5z" />
    <glyph glyph-name="D" unicode="D" horiz-adv-x="763" 
d="M266 42q58 0 106.5 21t84 60t55.5 95t20 127q0 81 -23 139t-60.5 94.5t-85.5 54t-97 17.5v-1h-155v-607h155v0zM266 691q90 -1 161 -26.5t119.5 -71.5t74 -109.5t25.5 -139.5q0 -81 -28 -145t-78 -108t-119 -67.5t-151 -23.5h-270v691h266v0z" />
    <glyph glyph-name="E" unicode="E" horiz-adv-x="547" 
d="M111 649v-262h322v-42h-322v-303h360v-42h-471v0v691v0h471v-42h-360z" />
    <glyph glyph-name="F" unicode="F" horiz-adv-x="540" 
d="M111 649v-262h322v-42h-322v-345h-111v691h471v-42h-360z" />
    <glyph glyph-name="G" unicode="G" horiz-adv-x="729" 
d="M535 312h103v-63v-177q-46 -39 -103 -59q-73 -28 -159 -28q-82 0 -151 24.5t-119 70.5t-78 112t-28 149q0 80 26 146t75.5 113.5t121 74t163.5 26.5q67 0 126.5 -16.5t107.5 -48.5v-3l-32 -44q-24 18 -52 31.5t-56 21.5t-54 12t-45 4q-50 0 -98 -17.5t-85.5 -55.5
t-60.5 -98t-23 -145q0 -73 19.5 -131.5t54.5 -99t83.5 -62t106.5 -21.5q91 0 157 49v235z" />
    <glyph glyph-name="H" unicode="H" horiz-adv-x="730" 
d="M599 691v-691h-111v345h-377v-345h-111v691h111v-304h377v304h111z" />
    <glyph glyph-name="I" unicode="I" horiz-adv-x="241" 
d="M111 0h-111v691h111v-691z" />
    <glyph glyph-name="J" unicode="J" horiz-adv-x="342" 
d="M211 49q-1 -31 -3.5 -55.5t-8.5 -45.5t-17 -39t-28 -36q-19 -20 -40.5 -32t-42 -19t-39 -9.5t-32.5 -2.5v9q20 0 38.5 11t32 35t21.5 62t8 92v672h111v-642z" />
    <glyph glyph-name="K" unicode="K" horiz-adv-x="641" 
d="M543 2h-123l-268 315l-41 -42v-275h-111v691h111v-350l352 350h66l-311 -308z" />
    <glyph glyph-name="L" unicode="L" horiz-adv-x="542" 
d="M471 0h-471v0v691h111v-649h360v-42z" />
    <glyph glyph-name="M" unicode="M" horiz-adv-x="936" 
d="M805 691v-691h-110v554l-267 -553l-1 -1h-66l1 1h-3l-294 564v-565h-65v691h123l297 -570l274 570h1h110z" />
    <glyph glyph-name="N" unicode="N" horiz-adv-x="785" 
d="M654 0h-64l-479 561v-561h-111v691h64l479 -561v561h111v-691v0v0z" />
    <glyph glyph-name="O" unicode="O" horiz-adv-x="883" 
d="M762 353q0 -78 -27 -145.5t-77 -117t-121.5 -77.5t-160.5 -28q-82 0 -151 24.5t-119 70.5t-78 112t-28 149q0 80 26 146t75.5 113.5t121 74t163.5 26.5q78 0 146.5 -22.5t119.5 -67t80.5 -109.5t29.5 -149zM378 28q59 0 108.5 21t85.5 62t56 100.5t20 136.5
q0 89 -22.5 148.5t-59.5 95.5t-85.5 51t-99.5 15q-50 0 -98 -17.5t-85.5 -55.5t-60.5 -98t-23 -145q0 -73 19.5 -131.5t54.5 -99t83.5 -62t106.5 -21.5z" />
    <glyph glyph-name="P" unicode="P" horiz-adv-x="643" 
d="M262 359q46 0 81.5 6t58.5 21.5t35 43t12 70.5q0 78 -46.5 113.5t-140.5 35.5h-151v-290h151v0zM310 691q49 0 93.5 -11.5t78.5 -35t54 -59.5t20 -85q0 -50 -20 -86t-54 -59t-78.5 -34.5t-93.5 -11.5h-199v-309h-111v691h310v0z" />
    <glyph glyph-name="Q" unicode="Q" horiz-adv-x="883" 
d="M114 342q0 -73 19.5 -131.5t54.5 -99t83.5 -62t106.5 -21.5q59 0 108.5 21t85.5 62t56 100.5t20 136.5q0 90 -24 149.5t-62.5 95t-86 50.5t-94.5 15q-50 0 -98 -17.5t-85.5 -55.5t-60.5 -98t-23 -145zM762 353q0 -103 -45 -185t-128 -130l112 -123h-111l-81 89
q-30 -9 -63.5 -14t-69.5 -5q-82 0 -151 24.5t-119 70.5t-78 112t-28 149q0 80 26 146t75.5 113.5t121 74t163.5 26.5q78 0 146.5 -22.5t119.5 -67t80.5 -109.5t29.5 -149z" />
    <glyph glyph-name="R" unicode="R" horiz-adv-x="682" 
d="M249 342q96 0 149 32.5t53 116.5t-53 121t-149 37h-138v-307h138zM439 0l-152 292q-7 -1 -28 -1h-148v-291h-111v691h296q51 0 98 -13t83 -38.5t57.5 -63t21.5 -85.5q0 -35 -11.5 -64.5t-32.5 -52.5t-49 -40t-61 -27l160 -307h-123z" />
    <glyph glyph-name="S" unicode="S" horiz-adv-x="589" 
d="M463 265q16 -37 15.5 -73t-13.5 -74q-20 -58 -65.5 -90t-102.5 -43q-78 -14 -154 7.5t-134 68.5l26 35q4 -2 16.5 -10t33 -18.5t47 -21t57.5 -17.5q22 -5 48.5 -6t52 4t46.5 17t33 35q19 34 16.5 64.5t-13.5 51.5q-11 20 -29 33.5t-38 22.5q-6 3 -32.5 12.5l-58 21
l-59 21.5t-35.5 14q-33 16 -61.5 38.5t-43.5 57.5q-16 37 -15.5 73t13.5 74q20 58 65.5 90.5t103.5 42.5q69 12 138 -4t128 -62l-26 -36q-6 5 -40.5 24.5t-92.5 33.5q-22 5 -48.5 6.5t-51.5 -3.5t-46.5 -17.5t-33.5 -34.5q-19 -35 -16 -65.5t14 -51.5q10 -20 28 -33.5
t38 -22.5q6 -3 33 -12.5l58.5 -21l59 -21.5t35.5 -14q32 -16 60.5 -38.5t43.5 -57.5z" />
    <glyph glyph-name="T" unicode="T" horiz-adv-x="626" 
d="M533 649h-211v-649h-111v649h-211v42h533v-42z" />
    <glyph glyph-name="U" unicode="U" horiz-adv-x="704" 
d="M577 281q-2 -59 -16.5 -116t-54.5 -99q-32 -33 -83 -56t-137 -23q-29 0 -62 4t-65.5 15.5t-63 31t-53.5 50.5q-27 36 -34.5 79t-7.5 104v420h111v-433q0 -53 10 -89t32 -63q24 -30 63.5 -47.5t87.5 -17.5q10 0 37.5 3t59 17.5t60 43.5t40.5 82q5 20 7.5 44t2.5 50v410h66
v-409v-1z" />
    <glyph glyph-name="V" unicode="V" horiz-adv-x="758" 
d="M0 691h123l234 -563l232 563h66l-285 -691h-83z" />
    <glyph glyph-name="W" unicode="W" horiz-adv-x="1032" 
d="M922 691l-213 -691h-83l-166 556l-171 -556h-82l-207 691h123l153 -563l160 563h107l153 -563l160 563h66z" />
    <glyph glyph-name="X" unicode="X" horiz-adv-x="670" 
d="M335 374l227 -371h-123l-170 279l-203 -282h-66l238 331l-220 360h123l164 -267l191 267h66z" />
    <glyph glyph-name="Y" unicode="Y" horiz-adv-x="687" 
d="M588 691l-224 -392v-299h-110v276l-254 415h123l206 -338l193 338h66z" />
    <glyph glyph-name="Z" unicode="Z" horiz-adv-x="725" 
d="M167 42h437v-42h-604l482 649h-453v42h607z" />
    <glyph glyph-name="grave" unicode="`" horiz-adv-x="187" 
d="M165 733l-167 104q-12 8 -15 16t-3 14q0 14 10 24.5t24 10.5q6 0 10 -1t9 -5t12.5 -11l19.5 -19l135 -133h-35z" />
    <glyph glyph-name="a" unicode="a" 
d="M438 226l-140 337l-139 -337h279zM456 184h-314l-76 -184h-66l285 691h83l287 -691h-123z" />
    <glyph glyph-name="b" unicode="b" horiz-adv-x="670" 
d="M249 42q96 0 149 37t53 121t-53 116.5t-149 32.5h-138v-307h138v0zM374 539q0 64 -39 87t-117 23h-107v-249h107q78 0 117 37t39 102zM340 397q44 -5 83 -20.5t68.5 -40.5t47 -59t17.5 -77q0 -48 -21.5 -85.5t-57.5 -63t-83 -38.5t-98 -13h-296v691h251q44 0 83.5 -8
t69.5 -26t47.5 -46.5t17.5 -68.5q0 -59 -37 -94.5t-92 -50.5z" />
    <glyph glyph-name="c" unicode="c" horiz-adv-x="706" 
d="M638 74v-2q-46 -39 -103 -59q-73 -28 -159 -28q-82 0 -151 24.5t-119 70.5t-78 112t-28 149q0 80 26 146t75.5 113.5t121 74t163.5 26.5q73 0 137.5 -20t114.5 -58l-34 -48q-24 22 -54 38t-60.5 26t-59 14.5t-49.5 4.5q-50 0 -98 -17.5t-85.5 -55.5t-60.5 -98t-23 -145
q0 -73 19.5 -131.5t54.5 -99t83.5 -62t106.5 -21.5q29 0 60.5 6t62 17.5t58.5 27t51 34.5z" />
    <glyph glyph-name="d" unicode="d" horiz-adv-x="767" 
d="M266 42q58 0 106.5 21t84 60t55.5 95t20 127q0 81 -23 139t-60.5 94.5t-85.5 54t-97 17.5v-1h-155v-607h155v0zM266 691q90 -1 161 -26.5t119.5 -71.5t74 -109.5t25.5 -139.5q0 -81 -28 -145t-78 -108t-119 -67.5t-151 -23.5h-270v691h266v0z" />
    <glyph glyph-name="e" unicode="e" horiz-adv-x="547" 
d="M111 649v-262h322v-42h-322v-303h360v-42h-471v0v691v0h471v-42h-360z" />
    <glyph glyph-name="f" unicode="f" horiz-adv-x="540" 
d="M111 649v-262h322v-42h-322v-345h-111v691h471v-42h-360z" />
    <glyph glyph-name="g" unicode="g" horiz-adv-x="729" 
d="M535 312h103v-63v-177q-46 -39 -103 -59q-73 -28 -159 -28q-82 0 -151 24.5t-119 70.5t-78 112t-28 149q0 80 26 146t75.5 113.5t121 74t163.5 26.5q67 0 126.5 -16.5t107.5 -48.5v-3l-32 -44q-24 18 -52 31.5t-56 21.5t-54 12t-45 4q-50 0 -98 -17.5t-85.5 -55.5
t-60.5 -98t-23 -145q0 -73 19.5 -131.5t54.5 -99t83.5 -62t106.5 -21.5q91 0 157 49v235z" />
    <glyph glyph-name="h" unicode="h" horiz-adv-x="730" 
d="M599 691v-691h-111v345h-377v-345h-111v691h111v-304h377v304h111z" />
    <glyph glyph-name="i" unicode="i" horiz-adv-x="241" 
d="M111 0h-111v691h111v-691z" />
    <glyph glyph-name="j" unicode="j" horiz-adv-x="342" 
d="M211 49q-1 -31 -3.5 -55.5t-8.5 -45.5t-17 -39t-28 -36q-19 -20 -40.5 -32t-42 -19t-39 -9.5t-32.5 -2.5v9q20 0 38.5 11t32 35t21.5 62t8 92v672h111v-642z" />
    <glyph glyph-name="k" unicode="k" horiz-adv-x="641" 
d="M543 2h-123l-268 315l-41 -42v-275h-111v691h111v-350l352 350h66l-311 -308z" />
    <glyph glyph-name="l" unicode="l" horiz-adv-x="542" 
d="M471 0h-471v0v691h111v-649h360v-42z" />
    <glyph glyph-name="m" unicode="m" horiz-adv-x="936" 
d="M805 691v-691h-110v554l-267 -553l-1 -1h-66l1 1h-3l-294 564v-565h-65v691h123l297 -570l274 570h1h110z" />
    <glyph glyph-name="n" unicode="n" horiz-adv-x="785" 
d="M654 0h-64l-479 561v-561h-111v691h64l479 -561v561h111v-691v0v0z" />
    <glyph glyph-name="o" unicode="o" horiz-adv-x="883" 
d="M762 353q0 -78 -27 -145.5t-77 -117t-121.5 -77.5t-160.5 -28q-82 0 -151 24.5t-119 70.5t-78 112t-28 149q0 80 26 146t75.5 113.5t121 74t163.5 26.5q78 0 146.5 -22.5t119.5 -67t80.5 -109.5t29.5 -149zM378 28q59 0 108.5 21t85.5 62t56 100.5t20 136.5
q0 89 -22.5 148.5t-59.5 95.5t-85.5 51t-99.5 15q-50 0 -98 -17.5t-85.5 -55.5t-60.5 -98t-23 -145q0 -73 19.5 -131.5t54.5 -99t83.5 -62t106.5 -21.5z" />
    <glyph glyph-name="p" unicode="p" horiz-adv-x="643" 
d="M262 359q46 0 81.5 6t58.5 21.5t35 43t12 70.5q0 78 -46.5 113.5t-140.5 35.5h-151v-290h151v0zM310 691q49 0 93.5 -11.5t78.5 -35t54 -59.5t20 -85q0 -50 -20 -86t-54 -59t-78.5 -34.5t-93.5 -11.5h-199v-309h-111v691h310v0z" />
    <glyph glyph-name="q" unicode="q" horiz-adv-x="883" 
d="M114 342q0 -73 19.5 -131.5t54.5 -99t83.5 -62t106.5 -21.5q59 0 108.5 21t85.5 62t56 100.5t20 136.5q0 90 -24 149.5t-62.5 95t-86 50.5t-94.5 15q-50 0 -98 -17.5t-85.5 -55.5t-60.5 -98t-23 -145zM762 353q0 -103 -45 -185t-128 -130l112 -123h-111l-81 89
q-30 -9 -63.5 -14t-69.5 -5q-82 0 -151 24.5t-119 70.5t-78 112t-28 149q0 80 26 146t75.5 113.5t121 74t163.5 26.5q78 0 146.5 -22.5t119.5 -67t80.5 -109.5t29.5 -149z" />
    <glyph glyph-name="r" unicode="r" horiz-adv-x="682" 
d="M249 342q96 0 149 32.5t53 116.5t-53 121t-149 37h-138v-307h138zM439 0l-152 292q-7 -1 -28 -1h-148v-291h-111v691h296q51 0 98 -13t83 -38.5t57.5 -63t21.5 -85.5q0 -35 -11.5 -64.5t-32.5 -52.5t-49 -40t-61 -27l160 -307h-123z" />
    <glyph glyph-name="s" unicode="s" horiz-adv-x="589" 
d="M463 265q16 -37 15.5 -73t-13.5 -74q-20 -58 -65.5 -90t-102.5 -43q-78 -14 -154 7.5t-134 68.5l26 35q4 -2 16.5 -10t33 -18.5t47 -21t57.5 -17.5q22 -5 48.5 -6t52 4t46.5 17t33 35q19 34 16.5 64.5t-13.5 51.5q-11 20 -29 33.5t-38 22.5q-6 3 -32.5 12.5l-58 21
l-59 21.5t-35.5 14q-33 16 -61.5 38.5t-43.5 57.5q-16 37 -15.5 73t13.5 74q20 58 65.5 90.5t103.5 42.5q69 12 138 -4t128 -62l-26 -36q-6 5 -40.5 24.5t-92.5 33.5q-22 5 -48.5 6.5t-51.5 -3.5t-46.5 -17.5t-33.5 -34.5q-19 -35 -16 -65.5t14 -51.5q10 -20 28 -33.5
t38 -22.5q6 -3 33 -12.5l58.5 -21l59 -21.5t35.5 -14q32 -16 60.5 -38.5t43.5 -57.5z" />
    <glyph glyph-name="t" unicode="t" horiz-adv-x="626" 
d="M533 649h-211v-649h-111v649h-211v42h533v-42z" />
    <glyph glyph-name="u" unicode="u" horiz-adv-x="704" 
d="M577 281q-2 -59 -16.5 -116t-54.5 -99q-32 -33 -83 -56t-137 -23q-29 0 -62 4t-65.5 15.5t-63 31t-53.5 50.5q-27 36 -34.5 79t-7.5 104v420h111v-433q0 -53 10 -89t32 -63q24 -30 63.5 -47.5t87.5 -17.5q10 0 37.5 3t59 17.5t60 43.5t40.5 82q5 20 7.5 44t2.5 50v410h66
v-409v-1z" />
    <glyph glyph-name="v" unicode="v" horiz-adv-x="758" 
d="M0 691h123l234 -563l232 563h66l-285 -691h-83z" />
    <glyph glyph-name="w" unicode="w" horiz-adv-x="1032" 
d="M922 691l-213 -691h-83l-166 556l-171 -556h-82l-207 691h123l153 -563l160 563h107l153 -563l160 563h66z" />
    <glyph glyph-name="x" unicode="x" horiz-adv-x="670" 
d="M335 374l227 -371h-123l-170 279l-203 -282h-66l238 331l-220 360h123l164 -267l191 267h66z" />
    <glyph glyph-name="y" unicode="y" horiz-adv-x="687" 
d="M588 691l-224 -392v-299h-110v276l-254 415h123l206 -338l193 338h66z" />
    <glyph glyph-name="z" unicode="z" horiz-adv-x="725" 
d="M167 42h437v-42h-604l482 649h-453v42h607z" />
    <glyph glyph-name="bar" unicode="|" horiz-adv-x="392" 
 />
    <glyph glyph-name="Adieresis" unicode="&#xc4;" 
d="M438 226l-140 337l-139 -337h279zM456 184h-314l-76 -184h-66l285 691h83l287 -691h-123zM234 845q20 0 33.5 -13.5t13.5 -32.5q0 -20 -13.5 -33.5t-33.5 -13.5q-19 0 -32.5 13.5t-13.5 33.5q0 19 13.5 32.5t32.5 13.5zM428 845q20 0 33.5 -13.5t13.5 -32.5
q0 -20 -13.5 -33.5t-33.5 -13.5q-19 0 -32.5 13.5t-13.5 33.5q0 19 13.5 32.5t32.5 13.5z" />
    <glyph glyph-name="Aring" unicode="&#xc5;" 
d="M438 226l-140 337l-139 -337h279zM456 184h-314l-76 -184h-66l285 691h83l287 -691h-123zM237 810q0 19 7 35.5t19.5 29t29.5 19.5t36 7q38 0 64.5 -26.5t26.5 -64.5q0 -19 -7 -36t-19.5 -29.5t-29 -19.5t-35.5 -7t-36 7t-29.5 19.5t-19.5 29.5t-7 36zM393 810
q0 26 -18.5 45t-46.5 19q-27 0 -45.5 -19t-18.5 -45q0 -27 18.5 -46t46.5 -19q27 0 45.5 19t18.5 46z" />
    <glyph glyph-name="Ccedilla" unicode="&#xc7;" horiz-adv-x="706" 
d="M381 658q-50 0 -98 -17.5t-85.5 -55.5t-60.5 -98t-23 -145q0 -73 19.5 -131.5t54.5 -99t83.5 -62t106.5 -21.5q29 0 60.5 6t62 17.5t58.5 27t51 34.5l28 -39v-2q-46 -39 -103 -59q-66 -26 -152 -28l-22 -51q5 2 14 4t22 2q27 0 51.5 -17.5t24.5 -52.5q0 -26 -12.5 -42.5
t-30.5 -25.5t-38 -12.5t-34 -3.5q-11 0 -32 2.5t-56 13.5l14 30q14 -5 28 -8.5t34 -3.5q29 0 43.5 12t14.5 30q0 15 -11 27.5t-37 12.5q-5 0 -12.5 -2t-15.5 -5t-14.5 -6t-9.5 -4l44 101q-76 4 -140 30t-110 72t-72 109.5t-26 143.5t26 146t75.5 113.5t121 74t163.5 26.5
q73 0 137.5 -20t114.5 -58l-34 -48q-24 22 -54 38t-60.5 26t-59 14.5t-49.5 4.5z" />
    <glyph glyph-name="Eacute" unicode="&#xc9;" horiz-adv-x="547" 
d="M111 649v-262h322v-42h-322v-303h360v-42h-471v0v691v0h471v-42h-360zM132 733l134 133l19.5 19t12.5 11t9.5 5t10.5 1q14 0 24 -10.5t10 -24.5q0 -18 -19 -30l-166 -104h-35z" />
    <glyph glyph-name="Ntilde" unicode="&#xd1;" horiz-adv-x="785" 
d="M654 0h-64l-479 561v-561h-111v691h64l479 -561v561h111v-691v0v0zM160 758q4 23 14 41t24 31t31 19.5t35 6.5q8 0 14 -1t14.5 -4t21 -8.5l33.5 -15.5q23 -11 32 -14t22 -3q12 0 20 4.5t14 12t10 16t7 17.5h34q-3 -12 -10 -29.5t-19.5 -33.5t-31.5 -27.5t-44 -11.5
q-13 0 -26.5 3t-30.5 11l-35 17q-14 7 -24.5 11t-22.5 4q-3 0 -9.5 -1t-14 -5.5t-15 -14t-11.5 -25.5h-32z" />
    <glyph glyph-name="Odieresis" unicode="&#xd6;" horiz-adv-x="883" 
d="M762 353q0 -78 -27 -145.5t-77 -117t-121.5 -77.5t-160.5 -28q-82 0 -151 24.5t-119 70.5t-78 112t-28 149q0 80 26 146t75.5 113.5t121 74t163.5 26.5q78 0 146.5 -22.5t119.5 -67t80.5 -109.5t29.5 -149zM378 28q59 0 108.5 21t85.5 62t56 100.5t20 136.5
q0 89 -22.5 148.5t-59.5 95.5t-85.5 51t-99.5 15q-50 0 -98 -17.5t-85.5 -55.5t-60.5 -98t-23 -145q0 -73 19.5 -131.5t54.5 -99t83.5 -62t106.5 -21.5zM284 845q20 0 33.5 -13.5t13.5 -32.5q0 -20 -13.5 -33.5t-33.5 -13.5q-19 0 -32.5 13.5t-13.5 33.5q0 19 13.5 32.5
t32.5 13.5zM478 845q20 0 33.5 -13.5t13.5 -32.5q0 -20 -13.5 -33.5t-33.5 -13.5q-19 0 -32.5 13.5t-13.5 33.5q0 19 13.5 32.5t32.5 13.5z" />
    <glyph glyph-name="Udieresis" unicode="&#xdc;" horiz-adv-x="704" 
d="M577 281q-2 -59 -16.5 -116t-54.5 -99q-32 -33 -83 -56t-137 -23q-29 0 -62 4t-65.5 15.5t-63 31t-53.5 50.5q-27 36 -34.5 79t-7.5 104v420h111v-433q0 -53 10 -89t32 -63q24 -30 63.5 -47.5t87.5 -17.5q10 0 37.5 3t59 17.5t60 43.5t40.5 82q5 20 7.5 44t2.5 50v410h66
v-409v-1zM194 845q20 0 33.5 -13.5t13.5 -32.5q0 -20 -13.5 -33.5t-33.5 -13.5q-19 0 -32.5 13.5t-13.5 33.5q0 19 13.5 32.5t32.5 13.5zM388 845q20 0 33.5 -13.5t13.5 -32.5q0 -20 -13.5 -33.5t-33.5 -13.5q-19 0 -32.5 13.5t-13.5 33.5q0 19 13.5 32.5t32.5 13.5z" />
    <glyph glyph-name="aacute" unicode="&#xe1;" 
d="M438 226l-140 337l-139 -337h279zM456 184h-314l-76 -184h-66l285 691h83l287 -691h-123zM292 733l134 133l19.5 19t12.5 11t9.5 5t10.5 1q14 0 24 -10.5t10 -24.5q0 -18 -19 -30l-166 -104h-35z" />
    <glyph glyph-name="agrave" unicode="&#xe0;" 
d="M438 226l-140 337l-139 -337h279zM456 184h-314l-76 -184h-66l285 691h83l287 -691h-123zM365 733l-167 104q-12 8 -15 16t-3 14q0 14 10 24.5t24 10.5q6 0 10 -1t9 -5t12.5 -11l19.5 -19l135 -133h-35z" />
    <glyph glyph-name="acircumflex" unicode="&#xe2;" 
d="M438 226l-140 337l-139 -337h279zM456 184h-314l-76 -184h-66l285 691h83l287 -691h-123zM302 900h56l122 -167h-38l-112 105l-112 -105h-39z" />
    <glyph glyph-name="adieresis" unicode="&#xe4;" 
d="M438 226l-140 337l-139 -337h279zM456 184h-314l-76 -184h-66l285 691h83l287 -691h-123zM234 845q20 0 33.5 -13.5t13.5 -32.5q0 -20 -13.5 -33.5t-33.5 -13.5q-19 0 -32.5 13.5t-13.5 33.5q0 19 13.5 32.5t32.5 13.5zM428 845q20 0 33.5 -13.5t13.5 -32.5
q0 -20 -13.5 -33.5t-33.5 -13.5q-19 0 -32.5 13.5t-13.5 33.5q0 19 13.5 32.5t32.5 13.5z" />
    <glyph glyph-name="atilde" unicode="&#xe3;" 
d="M438 226l-140 337l-139 -337h279zM456 184h-314l-76 -184h-66l285 691h83l287 -691h-123zM180 758q4 23 14 41t24 31t31 19.5t35 6.5q8 0 14 -1t14.5 -4t21 -8.5l33.5 -15.5q23 -11 32 -14t22 -3q12 0 20 4.5t14 12t10 16t7 17.5h34q-3 -12 -10 -29.5t-19.5 -33.5
t-31.5 -27.5t-44 -11.5q-13 0 -26.5 3t-30.5 11l-35 17q-14 7 -24.5 11t-22.5 4q-3 0 -9.5 -1t-14 -5.5t-15 -14t-11.5 -25.5h-32z" />
    <glyph glyph-name="aring" unicode="&#xe5;" 
d="M438 226l-140 337l-139 -337h279zM456 184h-314l-76 -184h-66l285 691h83l287 -691h-123zM235 810q0 19 7 35.5t19.5 29t29.5 19.5t36 7q38 0 64.5 -26.5t26.5 -64.5q0 -19 -7 -36t-19.5 -29.5t-29 -19.5t-35.5 -7t-36 7t-29.5 19.5t-19.5 29.5t-7 36zM391 810
q0 26 -18.5 45t-46.5 19q-27 0 -45.5 -19t-18.5 -45q0 -27 18.5 -46t46.5 -19q27 0 45.5 19t18.5 46z" />
    <glyph glyph-name="ccedilla" unicode="&#xe7;" horiz-adv-x="706" 
d="M381 658q-50 0 -98 -17.5t-85.5 -55.5t-60.5 -98t-23 -145q0 -73 19.5 -131.5t54.5 -99t83.5 -62t106.5 -21.5q29 0 60.5 6t62 17.5t58.5 27t51 34.5l28 -39v-2q-46 -39 -103 -59q-66 -26 -152 -28l-22 -51q5 2 14 4t22 2q27 0 51.5 -17.5t24.5 -52.5q0 -26 -12.5 -42.5
t-30.5 -25.5t-38 -12.5t-34 -3.5q-11 0 -32 2.5t-56 13.5l14 30q14 -5 28 -8.5t34 -3.5q29 0 43.5 12t14.5 30q0 15 -11 27.5t-37 12.5q-5 0 -12.5 -2t-15.5 -5t-14.5 -6t-9.5 -4l44 101q-76 4 -140 30t-110 72t-72 109.5t-26 143.5t26 146t75.5 113.5t121 74t163.5 26.5
q73 0 137.5 -20t114.5 -58l-34 -48q-24 22 -54 38t-60.5 26t-59 14.5t-49.5 4.5z" />
    <glyph glyph-name="eacute" unicode="&#xe9;" horiz-adv-x="547" 
d="M471 649v42h-471v-691h471v42h-360v303h322v42h-322v262h360zM132 733l134 133l19.5 19t12.5 11t9.5 5t10.5 1q14 0 24 -10.5t10 -24.5q0 -18 -19 -30l-166 -104h-35z" />
    <glyph glyph-name="egrave" unicode="&#xe8;" horiz-adv-x="547" 
d="M471 649v42h-471v-691h471v42h-360v303h322v42h-322v262h360zM295 733l-167 104q-12 8 -15 16t-3 14q0 14 10 24.5t24 10.5q6 0 10 -1t9 -5t12.5 -11l19.5 -19l135 -133h-35z" />
    <glyph glyph-name="ecircumflex" unicode="&#xea;" horiz-adv-x="547" 
d="M471 649v42h-471v0v-691v0h471v42h-360v303h322v42h-322v262h360zM212 900h56l122 -167h-38l-112 105l-112 -105h-39z" />
    <glyph glyph-name="edieresis" unicode="&#xeb;" horiz-adv-x="547" 
d="M471 649v42h-471v-691h471v42h-360v303h322v42h-322v262h360zM144 845q20 0 33.5 -13.5t13.5 -32.5q0 -20 -13.5 -33.5t-33.5 -13.5q-19 0 -32.5 13.5t-13.5 33.5q0 19 13.5 32.5t32.5 13.5zM338 845q20 0 33.5 -13.5t13.5 -32.5q0 -20 -13.5 -33.5t-33.5 -13.5
q-19 0 -32.5 13.5t-13.5 33.5q0 19 13.5 32.5t32.5 13.5z" />
    <glyph glyph-name="iacute" unicode="&#xed;" horiz-adv-x="241" 
d="M111 691h-111v-691h111v691zM2 733l134 133l19.5 19t12.5 11t9.5 5t10.5 1q14 0 24 -10.5t10 -24.5q0 -18 -19 -30l-166 -104h-35z" />
    <glyph glyph-name="igrave" unicode="&#xec;" horiz-adv-x="241" 
d="M111 691h-111v-691h111v691zM125 733l-167 104q-12 8 -15 16t-3 14q0 14 10 24.5t24 10.5q6 0 10 -1t9 -5t12.5 -11l19.5 -19l135 -133h-35z" />
    <glyph glyph-name="icircumflex" unicode="&#xee;" horiz-adv-x="241" 
d="M111 691h-111v-691h111v691zM32 900h56l122 -167h-38l-112 105l-112 -105h-39z" />
    <glyph glyph-name="idieresis" unicode="&#xef;" horiz-adv-x="241" 
d="M111 691h-111v-691h111v691zM-41 845q20 0 33.5 -13.5t13.5 -32.5q0 -20 -13.5 -33.5t-33.5 -13.5q-19 0 -32.5 13.5t-13.5 33.5q0 19 13.5 32.5t32.5 13.5zM153 845q20 0 33.5 -13.5t13.5 -32.5q0 -20 -13.5 -33.5t-33.5 -13.5q-19 0 -32.5 13.5t-13.5 33.5
q0 19 13.5 32.5t32.5 13.5z" />
    <glyph glyph-name="ntilde" unicode="&#xf1;" horiz-adv-x="785" 
d="M654 0v691h-111v-561l-479 561h-64v-691h111v561l479 -561h64zM170 758q4 23 14 41t24 31t31 19.5t35 6.5q8 0 14 -1t14.5 -4t21 -8.5l33.5 -15.5q23 -11 32 -14t22 -3q12 0 20 4.5t14 12t10 16t7 17.5h34q-3 -12 -10 -29.5t-19.5 -33.5t-31.5 -27.5t-44 -11.5
q-13 0 -26.5 3t-30.5 11l-35 17q-14 7 -24.5 11t-22.5 4q-3 0 -9.5 -1t-14 -5.5t-15 -14t-11.5 -25.5h-32z" />
    <glyph glyph-name="oacute" unicode="&#xf3;" horiz-adv-x="883" 
d="M762 353q0 -78 -27 -145.5t-77 -117t-121.5 -77.5t-160.5 -28q-82 0 -151 24.5t-119 70.5t-78 112t-28 149q0 80 26 146t75.5 113.5t121 74t163.5 26.5q78 0 146.5 -22.5t119.5 -67t80.5 -109.5t29.5 -149zM378 28q59 0 108.5 21t85.5 62t56 100.5t20 136.5
q0 89 -22.5 148.5t-59.5 95.5t-85.5 51t-99.5 15q-50 0 -98 -17.5t-85.5 -55.5t-60.5 -98t-23 -145q0 -73 19.5 -131.5t54.5 -99t83.5 -62t106.5 -21.5zM302 733l134 133l19.5 19t12.5 11t9.5 5t10.5 1q14 0 24 -10.5t10 -24.5q0 -18 -19 -30l-166 -104h-35z" />
    <glyph glyph-name="ograve" unicode="&#xf2;" horiz-adv-x="883" 
d="M762 353q0 -78 -27 -145.5t-77 -117t-121.5 -77.5t-160.5 -28q-82 0 -151 24.5t-119 70.5t-78 112t-28 149q0 80 26 146t75.5 113.5t121 74t163.5 26.5q78 0 146.5 -22.5t119.5 -67t80.5 -109.5t29.5 -149zM378 28q59 0 108.5 21t85.5 62t56 100.5t20 136.5
q0 89 -22.5 148.5t-59.5 95.5t-85.5 51t-99.5 15q-50 0 -98 -17.5t-85.5 -55.5t-60.5 -98t-23 -145q0 -73 19.5 -131.5t54.5 -99t83.5 -62t106.5 -21.5zM455 733l-167 104q-12 8 -15 16t-3 14q0 14 10 24.5t24 10.5q6 0 10 -1t9 -5t12.5 -11l19.5 -19l135 -133h-35z" />
    <glyph glyph-name="ocircumflex" unicode="&#xf4;" horiz-adv-x="883" 
d="M762 353q0 -78 -27 -145.5t-77 -117t-121.5 -77.5t-160.5 -28q-82 0 -151 24.5t-119 70.5t-78 112t-28 149q0 80 26 146t75.5 113.5t121 74t163.5 26.5q78 0 146.5 -22.5t119.5 -67t80.5 -109.5t29.5 -149zM378 28q59 0 108.5 21t85.5 62t56 100.5t20 136.5
q0 89 -22.5 148.5t-59.5 95.5t-85.5 51t-99.5 15q-50 0 -98 -17.5t-85.5 -55.5t-60.5 -98t-23 -145q0 -73 19.5 -131.5t54.5 -99t83.5 -62t106.5 -21.5zM342 900h56l122 -167h-38l-112 105l-112 -105h-39z" />
    <glyph glyph-name="odieresis" unicode="&#xf6;" horiz-adv-x="883" 
d="M762 353q0 -78 -27 -145.5t-77 -117t-121.5 -77.5t-160.5 -28q-82 0 -151 24.5t-119 70.5t-78 112t-28 149q0 80 26 146t75.5 113.5t121 74t163.5 26.5q78 0 146.5 -22.5t119.5 -67t80.5 -109.5t29.5 -149zM378 28q59 0 108.5 21t85.5 62t56 100.5t20 136.5
q0 89 -22.5 148.5t-59.5 95.5t-85.5 51t-99.5 15q-50 0 -98 -17.5t-85.5 -55.5t-60.5 -98t-23 -145q0 -73 19.5 -131.5t54.5 -99t83.5 -62t106.5 -21.5zM284 845q20 0 33.5 -13.5t13.5 -32.5q0 -20 -13.5 -33.5t-33.5 -13.5q-19 0 -32.5 13.5t-13.5 33.5q0 19 13.5 32.5
t32.5 13.5zM478 845q20 0 33.5 -13.5t13.5 -32.5q0 -20 -13.5 -33.5t-33.5 -13.5q-19 0 -32.5 13.5t-13.5 33.5q0 19 13.5 32.5t32.5 13.5z" />
    <glyph glyph-name="otilde" unicode="&#xf5;" horiz-adv-x="883" 
d="M762 353q0 -78 -27 -145.5t-77 -117t-121.5 -77.5t-160.5 -28q-82 0 -151 24.5t-119 70.5t-78 112t-28 149q0 80 26 146t75.5 113.5t121 74t163.5 26.5q78 0 146.5 -22.5t119.5 -67t80.5 -109.5t29.5 -149zM378 28q59 0 108.5 21t85.5 62t56 100.5t20 136.5
q0 89 -22.5 148.5t-59.5 95.5t-85.5 51t-99.5 15q-50 0 -98 -17.5t-85.5 -55.5t-60.5 -98t-23 -145q0 -73 19.5 -131.5t54.5 -99t83.5 -62t106.5 -21.5zM210 758q4 23 14 41t24 31t31 19.5t35 6.5q8 0 14 -1t14.5 -4t21 -8.5l33.5 -15.5q23 -11 32 -14t22 -3q12 0 20 4.5
t14 12t10 16t7 17.5h34q-3 -12 -10 -29.5t-19.5 -33.5t-31.5 -27.5t-44 -11.5q-13 0 -26.5 3t-30.5 11l-35 17q-14 7 -24.5 11t-22.5 4q-3 0 -9.5 -1t-14 -5.5t-15 -14t-11.5 -25.5h-32z" />
    <glyph glyph-name="uacute" unicode="&#xfa;" horiz-adv-x="704" 
d="M577 282v409h-66v-410q0 -26 -2.5 -50t-7.5 -44q-12 -53 -40.5 -82t-60 -43.5t-59 -17.5t-37.5 -3q-48 0 -87.5 17.5t-63.5 47.5q-22 27 -32 63t-10 89v433h-111v-420q0 -61 7.5 -104t34.5 -79q23 -31 53.5 -50.5t63 -31t65.5 -15.5t62 -4q86 0 137 23t83 56
q40 42 54.5 99t16.5 116v1zM202 733l134 133l19.5 19t12.5 11t9.5 5t10.5 1q14 0 24 -10.5t10 -24.5q0 -18 -19 -30l-166 -104h-35z" />
    <glyph glyph-name="ugrave" unicode="&#xf9;" horiz-adv-x="704" 
d="M577 282v409h-66v-410q0 -26 -2.5 -50t-7.5 -44q-12 -53 -40.5 -82t-60 -43.5t-59 -17.5t-37.5 -3q-48 0 -87.5 17.5t-63.5 47.5q-22 27 -32 62.5t-10 89.5v433h-111v-420q0 -61 7.5 -104t34.5 -79q23 -31 53.5 -50.5t63 -31t65.5 -15.5t62 -4q86 0 137 23t83 56
q40 42 54.5 99t16.5 116v1zM355 733l-167 104q-12 8 -15 16t-3 14q0 14 10 24.5t24 10.5q6 0 10 -1t9 -5t12.5 -11l19.5 -19l135 -133h-35z" />
    <glyph glyph-name="ucircumflex" unicode="&#xfb;" horiz-adv-x="704" 
d="M577 282v409h-66v-410q0 -26 -2.5 -50t-7.5 -44q-12 -53 -40.5 -82t-60 -43.5t-59 -17.5t-37.5 -3q-48 0 -87.5 17.5t-63.5 47.5q-22 27 -32 63t-10 89v433h-111v-420q0 -61 7.5 -104t34.5 -79q23 -31 53.5 -50.5t63 -31t65.5 -15.5t62 -4q86 0 137 23t83 56
q40 42 54.5 99t16.5 116v1zM262 900h56l122 -167h-38l-112 105l-112 -105h-39z" />
    <glyph glyph-name="udieresis" unicode="&#xfc;" horiz-adv-x="704" 
d="M577 282v409h-66v-410q0 -26 -2.5 -50t-7.5 -44q-12 -53 -40.5 -82t-60 -43.5t-59 -17.5t-37.5 -3q-48 0 -87.5 17.5t-63.5 47.5q-22 27 -32 63t-10 89v433h-111v-420q0 -61 7.5 -104t34.5 -79q23 -31 53.5 -50.5t63 -31t65.5 -15.5t62 -4q86 0 137 23t83 56
q40 42 54.5 99t16.5 116v1zM204 845q20 0 33.5 -13.5t13.5 -32.5q0 -20 -13.5 -33.5t-33.5 -13.5q-19 0 -32.5 13.5t-13.5 33.5q0 19 13.5 32.5t32.5 13.5zM398 845q20 0 33.5 -13.5t13.5 -32.5q0 -20 -13.5 -33.5t-33.5 -13.5q-19 0 -32.5 13.5t-13.5 33.5q0 19 13.5 32.5
t32.5 13.5z" />
    <glyph glyph-name="acute" unicode="&#xb4;" horiz-adv-x="273" 
d="M72 733l134 133l19.5 19t12.5 11t9.5 5t10.5 1q14 0 24 -10.5t10 -24.5q0 -18 -19 -30l-166 -104h-35z" />
    <glyph glyph-name="dieresis" unicode="&#xa8;" horiz-adv-x="313" 
d="M94 845q20 0 33.5 -13.5t13.5 -32.5q0 -20 -13.5 -33.5t-33.5 -13.5q-19 0 -32.5 13.5t-13.5 33.5q0 19 13.5 32.5t32.5 13.5zM288 845q20 0 33.5 -13.5t13.5 -32.5q0 -20 -13.5 -33.5t-33.5 -13.5q-19 0 -32.5 13.5t-13.5 33.5q0 19 13.5 32.5t32.5 13.5z" />
    <glyph glyph-name="AE" unicode="&#xc6;" horiz-adv-x="959" 
d="M463 226v366l-246 -366h246zM573 649v-262h263v-42h-263v-303h301v-42h-411v0v184h-274l-123 -184h-66l463 691v0h411v-42h-301z" />
    <glyph glyph-name="Oslash" unicode="&#xd8;" horiz-adv-x="887" 
d="M382 32q59 0 108.5 21t85.5 62t56 100.5t20 136.5q0 71 -14.5 122.5t-39.5 87.5l-384 -468q68 -62 168 -62zM118 346q0 -65 15 -117.5t44 -92.5l386 466q-36 32 -82 46t-96 14t-98 -17.5t-85.5 -55.5t-60.5 -98t-23 -145zM648 623q55 -45 86.5 -111.5t31.5 -154.5
q0 -78 -27 -145.5t-77 -117t-121.5 -77.5t-160.5 -28q-60 0 -112.5 13t-97.5 38l-74 -90h-74l102 122q-57 47 -88.5 115.5t-31.5 157.5q0 80 26 146t75.5 113.5t121 74t163.5 26.5q60 0 114.5 -13.5t100.5 -39.5l77 93h65l-99 -122v0z" />
    <glyph glyph-name="ae" unicode="&#xe6;" horiz-adv-x="959" 
d="M463 226v366l-246 -366h246zM573 649v-262h263v-42h-263v-303h301v-42h-411v0v184h-274l-123 -184h-66l463 691v0h411v-42h-301z" />
    <glyph glyph-name="oslash" unicode="&#xf8;" horiz-adv-x="887" 
d="M382 32q59 0 108.5 21t85.5 62t56 100.5t20 136.5q0 71 -14.5 122.5t-39.5 87.5l-384 -468q68 -62 168 -62zM118 346q0 -65 15 -117.5t44 -92.5l386 466q-36 32 -82 46t-96 14t-98 -17.5t-85.5 -55.5t-60.5 -98t-23 -145zM648 623q55 -45 86.5 -111.5t31.5 -154.5
q0 -78 -27 -145.5t-77 -117t-121.5 -77.5t-160.5 -28q-60 0 -112.5 13t-97.5 38l-74 -90h-74l102 122q-57 47 -88.5 115.5t-31.5 157.5q0 80 26 146t75.5 113.5t121 74t163.5 26.5q60 0 114.5 -13.5t100.5 -39.5l77 93h65l-99 -122v0z" />
    <glyph glyph-name="questiondown" unicode="&#xbf;" horiz-adv-x="390" 
d="M161.007 -5.95801q-36.9971 0 -66.9961 10.499q-29.998 10.5 -50.9961 28.999q-20.999 18.499 -31.998 43.4971q-11 24.998 -11 54.9971q0 28.998 8 51.4961q7.99902 22.499 19.999 40.998q11.999 18.499 25.498 32.998t25.498 25.498q30.998 29.998 49.4971 49.9971
t28.499 34.498q9.99902 14.499 12.999 25.498q2.99902 11 2.99902 22.999q0 19.999 -11.499 36.9971q-11.499 16.999 -37.4971 16.999q-5 0 -12.5 -0.5q-7.49902 -0.499023 -15.499 -1.49902v28.998q7 2 13.999 3.5q7 1.49902 18.999 1.49902q35.998 0 58.9971 -11.499
q22.998 -11.499 36.4971 -28.498t18.499 -36.498t5 -35.498q0 -43.9971 -25.499 -79.4951q-25.498 -35.4971 -57.4961 -66.4951q-40.9971 -40.998 -59.9961 -67.9961t-18.999 -59.9961q0 -34.998 21.999 -57.9971q21.998 -22.998 60.9961 -22.998q19.999 0 46.4971 7.49902
q26.498 7.5 47.4971 20.499l13.999 -32.998q-15.999 -12.999 -34.998 -20.499q-18.999 -7.49902 -35.498 -10.999t-28.998 -4t-16.499 -0.5zM152.008 564.008q-26.998 0 -45.4971 18.498q-18.499 18.499 -18.499 44.498q0 25.998 18.499 44.9971t45.4971 18.999
q25.998 0 44.4971 -18.499t18.499 -44.4971q0 -25.999 -18.499 -44.998q-18.499 -18.998 -44.4971 -18.998z" />
    <glyph glyph-name="exclamdown" unicode="&#xa1;" horiz-adv-x="251" 
d="M63.0039 564.008q-25.998 0 -44.4971 18.498q-18.499 18.499 -18.499 44.498q0 25.998 18.499 44.9971t44.4971 18.999q26.998 0 45.4971 -18.499t18.499 -44.4971q0 -25.999 -18.499 -44.998q-18.499 -18.998 -45.4971 -18.998zM116.001 23.04
q2.99902 -20.998 2.99902 -28.998h-110.993q0 7 0.5 13.499q0.5 6.5 1.5 16.499l40.998 481.971h26.998z" />
    <glyph glyph-name="Agrave" unicode="&#xc0;" 
d="M438 226l-140 337l-139 -337h279zM456 184h-314l-76 -184h-66l285 691h83l287 -691h-123zM335 733l-167 104q-12 8 -15 16t-3 14q0 14 10 24.5t24 10.5q6 0 10 -1t9 -5t12.5 -11l19.5 -19l135 -133h-35z" />
    <glyph glyph-name="Atilde" unicode="&#xc3;" 
d="M438 226l-140 337l-139 -337h279zM456 184h-314l-76 -184h-66l285 691h83l287 -691h-123zM190 758q4 23 14 41t24 31t31 19.5t35 6.5q8 0 14 -1t14.5 -4t21 -8.5l33.5 -15.5q23 -11 32 -14t22 -3q12 0 20 4.5t14 12t10 16t7 17.5h34q-3 -12 -10 -29.5t-19.5 -33.5
t-31.5 -27.5t-44 -11.5q-13 0 -26.5 3t-30.5 11l-35 17q-14 7 -24.5 11t-22.5 4q-3 0 -9.5 -1t-14 -5.5t-15 -14t-11.5 -25.5h-32z" />
    <glyph glyph-name="Otilde" unicode="&#xd5;" horiz-adv-x="883" 
d="M762 353q0 -78 -27 -145.5t-77 -117t-121.5 -77.5t-160.5 -28q-82 0 -151 24.5t-119 70.5t-78 112t-28 149q0 80 26 146t75.5 113.5t121 74t163.5 26.5q78 0 146.5 -22.5t119.5 -67t80.5 -109.5t29.5 -149zM378 28q59 0 108.5 21t85.5 62t56 100.5t20 136.5
q0 89 -22.5 148.5t-59.5 95.5t-85.5 51t-99.5 15q-50 0 -98 -17.5t-85.5 -55.5t-60.5 -98t-23 -145q0 -73 19.5 -131.5t54.5 -99t83.5 -62t106.5 -21.5zM220 758q4 23 14 41t24 31t31 19.5t35 6.5q8 0 14 -1t14.5 -4t21 -8.5l33.5 -15.5q23 -11 32 -14t22 -3q12 0 20 4.5
t14 12t10 16t7 17.5h34q-3 -12 -10 -29.5t-19.5 -33.5t-31.5 -27.5t-44 -11.5q-13 0 -26.5 3t-30.5 11l-35 17q-14 7 -24.5 11t-22.5 4q-3 0 -9.5 -1t-14 -5.5t-15 -14t-11.5 -25.5h-32z" />
    <glyph glyph-name="OE" unicode="&#x152;" horiz-adv-x="1067" 
d="M334 28q52 0 96 21t75 62t48.5 100.5t17.5 136.5q0 78 -17.5 136t-48.5 96t-74 57t-94 19q-44 0 -85 -17.5t-72.5 -55t-50.5 -97t-19 -144.5q0 -73 16 -131.5t45 -99t70.5 -62t92.5 -21.5zM682 649v-262h263v-42h-263v-303h301v-42h-412v79q-44 -45 -104 -69.5
t-135 -24.5q-72 0 -133 24.5t-105 70.5t-69 112t-25 149q0 80 23 146t66.5 113.5t107 74t144.5 26.5q68 0 126.5 -21t103.5 -63v74h412v-42h-301z" />
    <glyph glyph-name="oe" unicode="&#x153;" horiz-adv-x="1067" 
d="M334 28q52 0 96 21t75 62t48.5 100.5t17.5 136.5q0 78 -17.5 136t-48.5 96t-74 57t-94 19q-44 0 -85 -17.5t-72.5 -55t-50.5 -97t-19 -144.5q0 -73 16 -131.5t45 -99t70.5 -62t92.5 -21.5zM682 649v-262h263v-42h-263v-303h301v-42h-412v79q-44 -45 -104 -69.5
t-135 -24.5q-72 0 -133 24.5t-105 70.5t-69 112t-25 149q0 80 23 146t66.5 113.5t107 74t144.5 26.5q68 0 126.5 -21t103.5 -63v74h412v-42h-301z" />
    <glyph glyph-name="endash" unicode="&#x2013;" horiz-adv-x="475" 
d="M0 253h343v-60h-343v60z" />
    <glyph glyph-name="emdash" unicode="&#x2014;" horiz-adv-x="632" 
d="M0 253h500v-60h-500v60z" />
    <glyph glyph-name="ydieresis" unicode="&#xff;" horiz-adv-x="687" 
d="M588 691l-224 -392v-299h-110v276l-254 415h123l206 -338l193 338h66zM214 845q20 0 33.5 -13.5t13.5 -32.5q0 -20 -13.5 -33.5t-33.5 -13.5q-19 0 -32.5 13.5t-13.5 33.5q0 19 13.5 32.5t32.5 13.5zM408 845q20 0 33.5 -13.5t13.5 -32.5q0 -20 -13.5 -33.5t-33.5 -13.5
q-19 0 -32.5 13.5t-13.5 33.5q0 19 13.5 32.5t32.5 13.5z" />
    <glyph glyph-name="Ydieresis" unicode="&#x178;" horiz-adv-x="687" 
d="M588 691l-224 -392v-299h-110v276l-254 415h123l206 -338l193 338h66zM214 845q20 0 33.5 -13.5t13.5 -32.5q0 -20 -13.5 -33.5t-33.5 -13.5q-19 0 -32.5 13.5t-13.5 33.5q0 19 13.5 32.5t32.5 13.5zM408 845q20 0 33.5 -13.5t13.5 -32.5q0 -20 -13.5 -33.5t-33.5 -13.5
q-19 0 -32.5 13.5t-13.5 33.5q0 19 13.5 32.5t32.5 13.5z" />
    <glyph glyph-name="Euro" unicode="&#x20ac;" horiz-adv-x="799" 
d="M460 658q-43 0 -84.5 -13t-76.5 -40.5t-61 -70.5t-37 -104h371l-44 -60h-334q0 -7 -0.5 -13.5t-0.5 -14.5q0 -11 0.5 -20.5t1.5 -19.5h282l-44 -60h-229q24 -102 91.5 -158t161.5 -56q30 0 61.5 6t62 17.5t58 27t50.5 34.5l28 -39v-2q-44 -38 -102 -59q-73 -28 -160 -28
q-69 0 -128.5 17.5t-107 50.5t-80.5 80.5t-48 108.5h-91l45 60h36q-1 10 -1.5 19.5t-0.5 19.5q0 8 0.5 15t0.5 14h-80l44 60h44q13 61 44 111.5t79 85.5t112 54.5t142 19.5q74 0 138 -20t114 -58l-34 -48q-24 22 -54 38t-60.5 26t-59 14.5t-49.5 4.5z" />
    <glyph glyph-name="Acircumflex" unicode="&#xc2;" 
d="M438 226l-140 337l-139 -337h279zM456 184h-314l-76 -184h-66l285 691h83l287 -691h-123zM302 900h56l122 -167h-38l-112 105l-112 -105h-39z" />
    <glyph glyph-name="Ecircumflex" unicode="&#xca;" horiz-adv-x="547" 
d="M111 649v-262h322v-42h-322v-303h360v-42h-471v0v691v0h471v-42h-360zM212 900h56l122 -167h-38l-112 105l-112 -105h-39z" />
    <glyph glyph-name="Aacute" unicode="&#xc1;" 
d="M438 226l-140 337l-139 -337h279zM456 184h-314l-76 -184h-66l285 691h83l287 -691h-123zM292 733l134 133l19.5 19t12.5 11t9.5 5t10.5 1q14 0 24 -10.5t10 -24.5q0 -18 -19 -30l-166 -104h-35z" />
    <glyph glyph-name="Edieresis" unicode="&#xcb;" horiz-adv-x="547" 
d="M111 649v-262h322v-42h-322v-303h360v-42h-471v0v691v0h471v-42h-360zM144 845q20 0 33.5 -13.5t13.5 -32.5q0 -20 -13.5 -33.5t-33.5 -13.5q-19 0 -32.5 13.5t-13.5 33.5q0 19 13.5 32.5t32.5 13.5zM338 845q20 0 33.5 -13.5t13.5 -32.5q0 -20 -13.5 -33.5t-33.5 -13.5
q-19 0 -32.5 13.5t-13.5 33.5q0 19 13.5 32.5t32.5 13.5z" />
    <glyph glyph-name="Egrave" unicode="&#xc8;" horiz-adv-x="547" 
d="M111 649v-262h322v-42h-322v-303h360v-42h-471v0v691v0h471v-42h-360zM325 733l-167 104q-12 8 -15 16t-3 14q0 14 10 24.5t24 10.5q6 0 10 -1t9 -5t12.5 -11l19.5 -19l135 -133h-35z" />
    <glyph glyph-name="Iacute" unicode="&#xcd;" horiz-adv-x="241" 
d="M111 0h-111v691h111v-691zM3 733l134 133l19.5 19t12.5 11t9.5 5t10.5 1q14 0 24 -10.5t10 -24.5q0 -18 -19 -30l-166 -104h-35z" />
    <glyph glyph-name="Icircumflex" unicode="&#xce;" horiz-adv-x="241" 
d="M111 0h-111v691h111v-691zM23 900h56l122 -167h-38l-112 105l-112 -105h-39z" />
    <glyph glyph-name="Idieresis" unicode="&#xcf;" horiz-adv-x="241" 
d="M111 0h-111v691h111v-691zM-45 845q20 0 33.5 -13.5t13.5 -32.5q0 -20 -13.5 -33.5t-33.5 -13.5q-19 0 -32.5 13.5t-13.5 33.5q0 19 13.5 32.5t32.5 13.5zM149 845q20 0 33.5 -13.5t13.5 -32.5q0 -20 -13.5 -33.5t-33.5 -13.5q-19 0 -32.5 13.5t-13.5 33.5
q0 19 13.5 32.5t32.5 13.5z" />
    <glyph glyph-name="Igrave" unicode="&#xcc;" horiz-adv-x="241" 
d="M111 0h-111v691h111v-691zM76 733l-167 104q-12 8 -15 16t-3 14q0 14 10 24.5t24 10.5q6 0 10 -1t9 -5t12.5 -11l19.5 -19l135 -133h-35z" />
    <glyph glyph-name="Oacute" unicode="&#xd3;" horiz-adv-x="883" 
d="M762 353q0 -78 -27 -145.5t-77 -117t-121.5 -77.5t-160.5 -28q-82 0 -151 24.5t-119 70.5t-78 112t-28 149q0 80 26 146t75.5 113.5t121 74t163.5 26.5q78 0 146.5 -22.5t119.5 -67t80.5 -109.5t29.5 -149zM378 28q59 0 108.5 21t85.5 62t56 100.5t20 136.5
q0 89 -22.5 148.5t-59.5 95.5t-85.5 51t-99.5 15q-50 0 -98 -17.5t-85.5 -55.5t-60.5 -98t-23 -145q0 -73 19.5 -131.5t54.5 -99t83.5 -62t106.5 -21.5zM292 733l134 133l19.5 19t12.5 11t9.5 5t10.5 1q14 0 24 -10.5t10 -24.5q0 -18 -19 -30l-166 -104h-35z" />
    <glyph glyph-name="Ocircumflex" unicode="&#xd4;" horiz-adv-x="883" 
d="M762 353q0 -78 -27 -145.5t-77 -117t-121.5 -77.5t-160.5 -28q-82 0 -151 24.5t-119 70.5t-78 112t-28 149q0 80 26 146t75.5 113.5t121 74t163.5 26.5q78 0 146.5 -22.5t119.5 -67t80.5 -109.5t29.5 -149zM378 28q59 0 108.5 21t85.5 62t56 100.5t20 136.5
q0 89 -22.5 148.5t-59.5 95.5t-85.5 51t-99.5 15q-50 0 -98 -17.5t-85.5 -55.5t-60.5 -98t-23 -145q0 -73 19.5 -131.5t54.5 -99t83.5 -62t106.5 -21.5zM352 900h56l122 -167h-38l-112 105l-112 -105h-39z" />
    <glyph glyph-name="Ograve" unicode="&#xd2;" horiz-adv-x="883" 
d="M762 353q0 -78 -27 -145.5t-77 -117t-121.5 -77.5t-160.5 -28q-82 0 -151 24.5t-119 70.5t-78 112t-28 149q0 80 26 146t75.5 113.5t121 74t163.5 26.5q78 0 146.5 -22.5t119.5 -67t80.5 -109.5t29.5 -149zM378 28q59 0 108.5 21t85.5 62t56 100.5t20 136.5
q0 89 -22.5 148.5t-59.5 95.5t-85.5 51t-99.5 15q-50 0 -98 -17.5t-85.5 -55.5t-60.5 -98t-23 -145q0 -73 19.5 -131.5t54.5 -99t83.5 -62t106.5 -21.5zM465 733l-167 104q-12 8 -15 16t-3 14q0 14 10 24.5t24 10.5q6 0 10 -1t9 -5t12.5 -11l19.5 -19l135 -133h-35z" />
    <glyph glyph-name="Uacute" unicode="&#xda;" horiz-adv-x="704" 
d="M577 281q-2 -59 -16.5 -116t-54.5 -99q-32 -33 -83 -56t-137 -23q-29 0 -62 4t-65.5 15.5t-63 31t-53.5 50.5q-27 36 -34.5 79t-7.5 104v420h111v-433q0 -53 10 -89t32 -63q24 -30 63.5 -47.5t87.5 -17.5q10 0 37.5 3t59 17.5t60 43.5t40.5 82q5 20 7.5 44t2.5 50v410h66
v-409v-1zM212 733l134 133l19.5 19t12.5 11t9.5 5t10.5 1q14 0 24 -10.5t10 -24.5q0 -18 -19 -30l-166 -104h-35z" />
    <glyph glyph-name="Ucircumflex" unicode="&#xdb;" horiz-adv-x="704" 
d="M577 281q-2 -59 -16.5 -116t-54.5 -99q-32 -33 -83 -56t-137 -23q-29 0 -62 4t-65.5 15.5t-63 31t-53.5 50.5q-27 36 -34.5 79t-7.5 104v420h111v-433q0 -53 10 -89t32 -63q24 -30 63.5 -47.5t87.5 -17.5q10 0 37.5 3t59 17.5t60 43.5t40.5 82q5 20 7.5 44t2.5 50v410h66
v-409v-1zM262 900h56l122 -167h-38l-112 105l-112 -105h-39z" />
    <glyph glyph-name="Ugrave" unicode="&#xd9;" horiz-adv-x="704" 
d="M577 281q-2 -59 -16.5 -116t-54.5 -99q-32 -33 -83 -56t-137 -23q-29 0 -62 4t-65.5 15.5t-63 31t-53.5 50.5q-27 36 -34.5 79t-7.5 104v420h111v-433q0 -53 10 -89t32 -63q24 -30 63.5 -47.5t87.5 -17.5q10 0 37.5 3t59 17.5t60 43.5t40.5 82q5 20 7.5 44t2.5 50v410h66
v-409v-1zM345 733l-167 104q-12 8 -15 16t-3 14q0 14 10 24.5t24 10.5q6 0 10 -1t9 -5t12.5 -11l19.5 -19l135 -133h-35z" />
    <glyph glyph-name="dotlessi" unicode="&#x131;" horiz-adv-x="241" 
d="M111 0h-111v691h111v-691z" />
    <glyph glyph-name="circumflex" unicode="&#x2c6;" horiz-adv-x="317" 
d="M162 900h56l122 -167h-38l-112 105l-112 -105h-39z" />
    <glyph glyph-name="tilde" unicode="&#x2dc;" horiz-adv-x="407" 
d="M110 758q4 23 14 41t24 31t31 19.5t35 6.5q8 0 14 -1t14.5 -4t21 -8.5l33.5 -15.5q23 -11 32 -14t22 -3q12 0 20 4.5t14 12t10 16t7 17.5h34q-3 -12 -10 -29.5t-19.5 -33.5t-31.5 -27.5t-44 -11.5q-13 0 -26.5 3t-30.5 11l-35 17q-14 7 -24.5 11t-22.5 4q-3 0 -9.5 -1
t-14 -5.5t-15 -14t-11.5 -25.5h-32z" />
    <glyph glyph-name="ring" unicode="&#x2da;" horiz-adv-x="192" 
d="M23 810q0 19 7 35.5t19.5 29t29.5 19.5t36 7q38 0 64.5 -26.5t26.5 -64.5q0 -19 -7 -36t-19.5 -29.5t-29 -19.5t-35.5 -7t-36 7t-29.5 19.5t-19.5 29.5t-7 36zM179 810q0 26 -18.5 45t-46.5 19q-27 0 -45.5 -19t-18.5 -45q0 -27 18.5 -46t46.5 -19q27 0 45.5 19t18.5 46z
" />
    <glyph glyph-name="NULL" horiz-adv-x="0" 
 />
    </font>
</defs>
</svg>
